# Blender 4.3.2
# www.blender.org
mtllib tree.mtl
o Cube
v -0.000000 0.000000 -0.520330
v -0.367929 0.000000 -0.367929
v -0.520330 0.000000 -0.000000
v -0.367929 0.000000 0.367929
v -0.000000 0.000000 0.520330
v 0.367929 0.000000 0.367929
v 0.520330 0.000000 -0.000000
v 0.367929 0.000000 -0.367929
v -0.000000 0.585479 -0.345218
v -0.244106 0.585479 -0.244106
v -0.345218 0.585479 -0.000000
v -0.244106 0.585479 0.244106
v -0.000000 0.585479 0.345218
v 0.244106 0.585479 0.244106
v 0.345218 0.585479 -0.000000
v 0.244106 0.585479 -0.244106
v -0.000000 0.585479 -1.521973
v -1.076198 0.585479 -1.076198
v -1.521973 0.585479 0.000000
v -1.076198 0.585479 1.076198
v -0.000000 0.585479 1.521973
v 1.076198 0.585479 1.076198
v 1.521973 0.585479 0.000000
v 1.076198 0.585479 -1.076198
v -0.000000 1.504732 -0.356395
v -0.252010 1.504732 -0.252010
v -0.356395 1.504732 0.000000
v -0.252010 1.504732 0.252010
v -0.000000 1.504732 0.356395
v 0.252010 1.504732 0.252010
v 0.356395 1.504732 0.000000
v 0.252010 1.504732 -0.252010
v -0.000000 1.247063 -1.307112
v -0.924268 1.247063 -0.924268
v -1.307112 1.247063 0.000000
v -0.924268 1.247063 0.924268
v -0.000000 1.247063 1.307112
v 0.924268 1.247063 0.924268
v 1.307112 1.247063 0.000000
v 0.924268 1.247063 -0.924268
v -0.000000 2.000599 -0.463965
v -0.328073 2.000599 -0.328073
v -0.463965 2.000599 0.000000
v -0.328073 2.000599 0.328073
v -0.000000 2.000599 0.463965
v 0.328073 2.000599 0.328073
v 0.463965 2.000599 0.000000
v 0.328073 2.000599 -0.328073
v -0.000000 1.914752 -0.981235
v -0.693838 1.914752 -0.693838
v -0.981235 1.914752 0.000000
v -0.693838 1.914752 0.693838
v -0.000000 1.914752 0.981235
v 0.693838 1.914752 0.693838
v 0.981235 1.914752 0.000000
v 0.693838 1.914752 -0.693838
v 0.000000 2.607524 -0.182468
v -0.129024 2.607524 -0.129024
v -0.182468 2.607524 0.000000
v -0.129024 2.607524 0.129024
v 0.000000 2.607524 0.182468
v 0.129024 2.607524 0.129024
v 0.182468 2.607524 0.000000
v 0.129024 2.607524 -0.129024
v 0.000000 2.519241 -0.597735
v -0.422662 2.519241 -0.422662
v -0.597735 2.519241 0.000000
v -0.422662 2.519241 0.422662
v 0.000000 2.519241 0.597735
v 0.422662 2.519241 0.422662
v 0.597735 2.519241 0.000000
v 0.422662 2.519241 -0.422662
v 0.000000 3.440769 -0.061848
v -0.043733 3.440769 -0.043733
v -0.061848 3.440769 0.000000
v -0.043733 3.440769 0.043733
v 0.000000 3.440769 0.061848
v 0.043733 3.440769 0.043733
v 0.061848 3.440769 0.000000
v 0.043733 3.440769 -0.043733
vn -0.8905 0.2663 -0.3689
vn 0.8905 0.2663 -0.3689
vn 0.3689 0.2663 0.8905
vn -0.8905 0.2663 0.3689
vn -0.3689 0.2663 -0.8905
vn 0.3689 0.2663 -0.8905
vn 0.8905 0.2663 0.3689
vn -0.3689 0.2663 0.8905
vn -0.0000 -1.0000 -0.0000
vn 0.5998 0.7606 -0.2485
vn 0.2485 0.7606 0.5998
vn -0.5998 0.7606 0.2485
vn -0.2485 0.7606 -0.5998
vn 0.2485 0.7606 -0.5998
vn 0.5998 0.7606 0.2485
vn -0.2485 0.7606 0.5998
vn -0.5998 0.7606 -0.2485
vn -0.2601 -0.9596 -0.1077
vn 0.1077 -0.9596 -0.2601
vn 0.2601 -0.9596 0.1077
vn -0.2601 -0.9596 0.1077
vn -0.1077 -0.9596 -0.2601
vn 0.2601 -0.9596 -0.1077
vn 0.1077 -0.9596 0.2601
vn -0.1077 -0.9596 0.2601
vn -0.2661 0.7187 -0.6424
vn 0.2661 0.7187 -0.6424
vn 0.6424 0.7187 0.2661
vn -0.2661 0.7187 0.6424
vn -0.6424 0.7187 -0.2661
vn 0.6424 0.7187 -0.2661
vn 0.2661 0.7187 0.6424
vn -0.6424 0.7187 0.2661
vn -0.1633 -0.9842 0.0677
vn -0.0677 -0.9842 -0.1633
vn 0.1633 -0.9842 -0.0677
vn 0.0677 -0.9842 0.1633
vn -0.0677 -0.9842 0.1633
vn -0.1633 -0.9842 -0.0677
vn 0.0677 -0.9842 -0.1633
vn 0.1633 -0.9842 0.0677
vn -0.6323 0.7291 -0.2619
vn 0.6323 0.7291 -0.2619
vn 0.2619 0.7291 0.6323
vn -0.6323 0.7291 0.2619
vn -0.2619 0.7291 -0.6323
vn 0.2619 0.7291 -0.6323
vn 0.6323 0.7291 0.2619
vn -0.2619 0.7291 0.6323
vn -0.0858 -0.9745 0.2072
vn -0.2072 -0.9745 -0.0858
vn 0.0858 -0.9745 -0.2072
vn 0.2072 -0.9745 0.0858
vn -0.2072 -0.9745 0.0858
vn -0.0858 -0.9745 -0.2072
vn 0.2072 -0.9745 -0.0858
vn 0.0858 -0.9745 0.2072
vn -0.8139 0.4733 0.3371
vn -0.3371 0.4733 -0.8139
vn 0.3371 0.4733 -0.8139
vn 0.8139 0.4733 0.3371
vn -0.3371 0.4733 0.8139
vn -0.8139 0.4733 -0.3371
vn 0.8139 0.4733 -0.3371
vn 0.3371 0.4733 0.8139
vn -0.0000 1.0000 -0.0000
vt 0.739494 0.326528
vt 0.762861 0.250939
vt 0.762861 0.311235
vt 0.672288 0.843534
vt 0.692357 0.915471
vt 0.668559 0.909886
vt 0.698561 0.843534
vt 0.718629 0.915471
vt 0.694831 0.909886
vt 0.745915 0.171383
vt 0.739494 0.235646
vt 0.767121 0.353871
vt 0.745915 0.390790
vt 0.505038 0.641769
vt 0.484929 0.717357
vt 0.484929 0.657061
vt 0.672288 1.000000
vt 0.694831 0.975258
vt 0.698561 1.000000
vt 0.721103 0.975258
vt 0.284610 0.276899
vt 0.339157 0.293930
vt 0.292609 0.328207
vt 0.292609 0.385405
vt 0.303891 0.676525
vt 0.284610 0.414988
vt 0.273297 0.399626
vt 0.218750 0.382595
vt 0.265298 0.348318
vt 0.218750 0.130423
vt 0.265298 0.291120
vt 0.273297 0.261537
vt 0.303891 0.067727
vt 0.339157 0.546102
vt 0.254016 0.608798
vt 0.254016 0.000000
vt 0.468509 0.641769
vt 0.500056 0.352009
vt 0.506131 0.396025
vt 0.565980 0.701993
vt 0.506131 0.644219
vt 0.510529 0.600203
vt 0.695375 0.265829
vt 0.635526 0.208055
vt 0.639924 0.164039
vt 0.442566 0.187970
vt 0.506131 0.245744
vt 0.500056 0.289760
vt 0.442566 0.453799
vt 0.580075 0.551168
vt 0.635526 0.715207
vt 0.580075 0.816998
vt 0.510529 0.537954
vt 0.565980 0.436164
vt 0.639924 0.101791
vt 0.695375 0.000000
vt 0.396701 0.227159
vt 0.369445 0.000000
vt 0.412278 0.058166
vt 0.404959 0.339178
vt 0.442566 0.252435
vt 0.442566 0.469008
vt 0.385022 0.353859
vt 0.412278 0.581018
vt 0.369445 0.522852
vt 0.376764 0.241840
vt 0.385022 0.211299
vt 0.404959 0.280128
vt 0.396701 0.369719
vt 0.339157 0.328583
vt 0.376764 0.300890
vt 0.339157 0.112010
vt 0.606040 -0.000000
vt 0.627617 0.235066
vt 0.583759 0.161434
vt 0.627617 0.316103
vt 0.583759 0.389735
vt 0.275063 0.676525
vt 0.318152 0.831194
vt 0.275063 0.904826
vt 0.684340 0.615233
vt 0.727429 0.769902
vt 0.684340 0.843534
vt 0.635526 0.615233
vt 0.678615 0.769902
vt 0.635526 0.843534
vt 0.635526 0.373404
vt 0.606040 0.551168
vt 0.700470 0.453799
vt 0.727429 0.688865
vt 0.651656 0.453799
vt 0.678615 0.688865
vt 0.526592 0.154723
vt 0.528868 -0.000000
vt 0.537343 0.114965
vt 0.552547 0.135611
vt 0.583759 0.189500
vt 0.563298 0.204567
vt 0.563298 0.281441
vt 0.561022 0.436164
vt 0.552547 0.321199
vt 0.537343 0.300553
vt 0.506131 0.246664
vt 0.526592 0.231596
vt 0.506131 0.084085
vt 0.561022 0.043664
vt 0.583759 0.352079
vt 0.528868 0.392500
vt 0.442566 0.762955
vt 0.482677 0.864582
vt 0.442566 0.934339
vt 0.695375 0.292570
vt 0.739494 0.245349
vt 0.712101 0.413756
vt 0.386445 0.702204
vt 0.428809 0.749426
vt 0.426557 0.771961
vt 0.484929 0.810176
vt 0.482677 0.832712
vt 0.712101 0.000000
vt 0.736383 0.190943
vt 0.695375 0.121186
vt 0.736383 0.222813
vt 0.779606 0.171383
vt 0.739494 0.069757
vt 0.779606 0.000000
vt 0.426557 0.803831
vt 0.386445 0.873588
vt 0.355583 0.719181
vt 0.339157 0.632240
vt 0.355583 0.688948
vt 0.365791 0.681432
vt 0.353007 0.581018
vt 0.372595 0.607617
vt 0.370019 0.738784
vt 0.386445 0.696455
vt 0.386445 0.795492
vt 0.359811 0.746300
vt 0.372595 0.846714
vt 0.353007 0.820115
vt 0.359811 0.673312
vt 0.370019 0.708551
vt 0.365791 0.754420
vt 0.339157 0.731277
vt 0.230021 0.745259
vt 0.269236 0.676967
vt 0.270402 0.684078
vt 0.275063 0.854995
vt 0.272816 0.691727
vt 0.275063 0.695433
vt 0.635526 0.978881
vt 0.653751 0.854910
vt 0.668559 0.978881
vt 0.616583 0.915526
vt 0.582724 0.816998
vt 0.627506 0.816998
vt 0.769663 0.783617
vt 0.735804 0.685088
vt 0.780586 0.685088
vt 0.253346 0.819184
vt 0.580075 0.833604
vt 0.581594 0.827192
vt 0.733154 0.701694
vt 0.734674 0.695283
vt 0.653751 0.843534
vt 0.656168 0.851578
vt 0.650333 0.854910
vt 0.647916 0.851578
vt 0.647916 0.846866
vt 0.650333 0.843534
vt 0.656168 0.846866
vt 0.694831 0.871449
vt 0.721103 0.871449
vt 0.767121 0.208303
vt 0.505038 0.732650
vt 0.547199 0.889963
vt 0.676594 0.453799
vt 0.468509 0.000000
vt 0.635526 0.652959
vt 0.635526 0.177764
vt 0.318152 0.750157
vt 0.733154 0.631563
vt 0.684340 0.631563
vt 0.398554 0.581018
vt 0.454674 0.641769
vt 0.739494 0.168408
vt 0.739494 0.101627
vt 0.218750 0.676525
vt 0.601898 0.977488
vt 0.754978 0.845578
vt 0.774319 0.640500
vt 0.762262 0.685089
vt 0.745211 0.453799
vt 0.745211 0.661934
vt 0.733154 0.584600
vt 0.733154 0.498388
vt 0.762262 0.476954
vt 0.774319 0.554287
s 0
usemtl Material.001
f 2/1/1 11/2/1 10/3/1
f 8/4/2 15/5/2 7/6/2
f 6/7/3 13/8/3 5/9/3
f 4/10/4 11/2/4 3/11/4
f 2/1/5 9/12/5 1/13/5
f 8/14/6 9/15/6 16/16/6
f 6/17/7 15/5/7 14/18/7
f 4/19/8 13/8/8 12/20/8
f 14/21/9 21/22/9 13/23/9
f 12/24/9 19/25/9 11/26/9
f 10/27/9 17/28/9 9/29/9
f 9/29/9 24/30/9 16/31/9
f 15/32/9 22/33/9 14/21/9
f 13/23/9 20/34/9 12/24/9
f 11/26/9 18/35/9 10/27/9
f 16/31/9 23/36/9 15/32/9
f 23/37/10 32/38/10 31/39/10
f 21/40/11 30/41/11 29/42/11
f 19/43/12 28/44/12 27/45/12
f 17/46/13 26/47/13 25/48/13
f 17/46/14 32/38/14 24/49/14
f 23/50/15 30/51/15 22/52/15
f 21/40/16 28/53/16 20/54/16
f 19/43/17 26/55/17 18/56/17
f 30/57/18 39/58/18 38/59/18
f 28/60/19 37/61/19 36/62/19
f 26/63/20 35/64/20 34/65/20
f 32/66/21 39/58/21 31/67/21
f 30/57/22 37/61/22 29/68/22
f 28/60/23 35/64/23 27/69/23
f 26/63/24 33/70/24 25/71/24
f 32/66/25 33/70/25 40/72/25
f 34/73/26 41/74/26 33/75/26
f 33/75/27 48/76/27 40/77/27
f 39/78/28 46/79/28 38/80/28
f 37/81/29 44/82/29 36/83/29
f 35/84/30 42/85/30 34/86/30
f 40/77/31 47/87/31 39/88/31
f 38/89/32 45/90/32 37/81/32
f 36/91/33 43/92/33 35/84/33
f 48/93/34 55/94/34 47/95/34
f 46/96/35 53/97/35 45/98/35
f 44/99/36 51/100/36 43/101/36
f 42/102/37 49/103/37 41/104/37
f 48/93/38 49/103/38 56/105/38
f 46/96/39 55/94/39 54/106/39
f 44/99/40 53/97/40 52/107/40
f 42/102/41 51/100/41 50/108/41
f 51/109/42 58/110/42 50/111/42
f 56/112/43 63/113/43 55/114/43
f 53/115/44 62/116/44 61/117/44
f 51/109/45 60/118/45 59/119/45
f 50/120/46 57/121/46 49/122/46
f 49/122/47 64/123/47 56/112/47
f 55/124/48 62/125/48 54/126/48
f 53/115/49 60/127/49 52/128/49
f 57/129/50 72/130/50 64/131/50
f 62/132/51 71/133/51 70/134/51
f 60/135/52 69/136/52 68/137/52
f 58/138/53 67/139/53 66/140/53
f 64/131/54 71/133/54 63/141/54
f 62/132/55 69/136/55 61/142/55
f 60/135/56 67/139/56 59/143/56
f 58/138/57 65/144/57 57/129/57
f 67/145/58 76/146/58 75/147/58
f 65/148/59 74/149/59 73/150/59
f 65/151/60 80/152/60 72/153/60
f 71/154/61 78/155/61 70/156/61
f 69/157/62 76/158/62 68/159/62
f 67/145/63 74/149/63 66/160/63
f 71/154/64 80/161/64 79/162/64
f 69/157/65 78/163/65 77/164/65
f 77/165/66 79/166/66 73/167/66
f 73/167/66 74/168/66 75/169/66
f 75/169/66 76/170/66 77/165/66
f 77/165/66 78/171/66 79/166/66
f 79/166/66 80/152/66 73/167/66
f 73/167/66 75/169/66 77/165/66
f 2/1/1 3/11/1 11/2/1
f 8/4/2 16/172/2 15/5/2
f 6/7/3 14/173/3 13/8/3
f 4/10/4 12/174/4 11/2/4
f 2/1/5 10/3/5 9/12/5
f 8/14/6 1/175/6 9/15/6
f 6/17/7 7/6/7 15/5/7
f 4/19/8 5/9/8 13/8/8
f 14/21/9 22/33/9 21/22/9
f 12/24/9 20/34/9 19/25/9
f 10/27/9 18/35/9 17/28/9
f 9/29/9 17/28/9 24/30/9
f 15/32/9 23/36/9 22/33/9
f 13/23/9 21/22/9 20/34/9
f 11/26/9 19/25/9 18/35/9
f 16/31/9 24/30/9 23/36/9
f 23/37/10 24/49/10 32/38/10
f 21/40/11 22/176/11 30/41/11
f 19/43/12 20/177/12 28/44/12
f 17/46/13 18/178/13 26/47/13
f 17/46/14 25/48/14 32/38/14
f 23/50/15 31/179/15 30/51/15
f 21/40/16 29/42/16 28/53/16
f 19/43/17 27/45/17 26/55/17
f 30/57/18 31/67/18 39/58/18
f 28/60/19 29/68/19 37/61/19
f 26/63/20 27/69/20 35/64/20
f 32/66/21 40/72/21 39/58/21
f 30/57/22 38/59/22 37/61/22
f 28/60/23 36/62/23 35/64/23
f 26/63/24 34/65/24 33/70/24
f 32/66/25 25/71/25 33/70/25
f 34/73/26 42/180/26 41/74/26
f 33/75/27 41/74/27 48/76/27
f 39/78/28 47/181/28 46/79/28
f 37/81/29 45/90/29 44/82/29
f 35/84/30 43/92/30 42/85/30
f 40/77/31 48/76/31 47/87/31
f 38/89/32 46/182/32 45/90/32
f 36/91/33 44/183/33 43/92/33
f 48/93/34 56/105/34 55/94/34
f 46/96/35 54/106/35 53/97/35
f 44/99/36 52/107/36 51/100/36
f 42/102/37 50/108/37 49/103/37
f 48/93/38 41/104/38 49/103/38
f 46/96/39 47/95/39 55/94/39
f 44/99/40 45/98/40 53/97/40
f 42/102/41 43/101/41 51/100/41
f 51/109/42 59/119/42 58/110/42
f 56/112/43 64/123/43 63/113/43
f 53/115/44 54/184/44 62/116/44
f 51/109/45 52/185/45 60/118/45
f 50/120/46 58/186/46 57/121/46
f 49/122/47 57/121/47 64/123/47
f 55/124/48 63/187/48 62/125/48
f 53/115/49 61/117/49 60/127/49
f 57/129/50 65/144/50 72/130/50
f 62/132/51 63/141/51 71/133/51
f 60/135/52 61/142/52 69/136/52
f 58/138/53 59/143/53 67/139/53
f 64/131/54 72/130/54 71/133/54
f 62/132/55 70/134/55 69/136/55
f 60/135/56 68/137/56 67/139/56
f 58/138/57 66/140/57 65/144/57
f 67/145/58 68/188/58 76/146/58
f 65/148/59 66/160/59 74/149/59
f 65/151/60 73/167/60 80/152/60
f 71/154/61 79/162/61 78/155/61
f 69/157/62 77/164/62 76/158/62
f 67/145/63 75/147/63 74/149/63
f 71/154/64 72/189/64 80/161/64
f 69/157/65 70/190/65 78/163/65
f 4/191/9 3/192/9 7/193/9
f 3/192/9 2/194/9 1/195/9
f 1/195/9 8/196/9 3/192/9
f 8/196/9 7/193/9 3/192/9
f 7/193/9 6/197/9 5/198/9
f 5/198/9 4/191/9 7/193/9
