# Blender 4.4.3
# www.blender.org
mtllib tree.mtl
o Cube
v -0.188817 0.177775 -0.393827
v -0.238216 -0.217652 -0.460289
v -0.733155 0.001058 0.989700
v -0.749790 -0.218535 0.921685
v -0.125327 -0.010222 -0.815661
v -0.162354 -0.222798 -0.788968
v -0.619999 -0.383666 2.244219
v -0.614454 -0.276090 2.266891
v -0.000000 -0.359974 0.421920
v 0.000000 0.292610 -0.370087
v -0.000000 0.265447 0.606011
v -0.000000 -0.339762 -0.406105
v -0.000000 0.004348 -0.924214
v -0.000000 -0.264094 -0.880852
v 0.000000 -0.479529 2.335391
v -0.000000 -0.059931 2.386003
v -0.192515 0.163583 0.454577
v -0.280158 -0.220529 0.110030
v -0.118403 -0.227060 2.435936
v -0.134373 -0.451519 2.369693
v -2.260502 -0.199036 1.864036
v -2.260502 -0.272789 1.864036
v -2.192302 -0.304723 2.497055
v -2.192302 -0.340406 2.497055
v -0.081398 -0.409692 3.261355
v -0.081398 -0.300717 3.261848
v -0.000000 -0.223764 3.334507
v 0.000000 -0.403072 3.333189
v 0.188817 0.177775 -0.393827
v 0.238216 -0.217652 -0.460289
v 0.733155 0.001058 0.989700
v 0.749790 -0.218535 0.921685
v 0.125327 -0.010222 -0.815661
v 0.162354 -0.222798 -0.788968
v 0.619999 -0.383666 2.244219
v 0.614454 -0.276090 2.266891
v 0.192515 0.163583 0.454577
v 0.280158 -0.220529 0.110030
v 0.118403 -0.227060 2.435936
v 0.134373 -0.451519 2.369693
v 2.260502 -0.199036 1.864036
v 2.260502 -0.272789 1.864036
v 2.192302 -0.304723 2.497055
v 2.192302 -0.340406 2.497055
v 0.081398 -0.409692 3.261355
v 0.081398 -0.300717 3.261849
v -0.262228 -0.196748 -0.292385
v -0.245544 -0.019029 -0.436799
v -0.278159 0.009486 0.012885
v -0.090362 0.241214 0.583232
v -0.195274 0.209920 -0.081099
v -0.144384 -0.317704 -0.432170
v -0.149554 -0.125119 -0.824419
v -0.102225 -0.256435 -0.850040
v -0.156310 0.084126 -0.655331
v -0.203832 -0.233635 -0.643476
v -0.124985 -0.386326 2.670428
v -0.208569 -0.372932 1.206898
v -0.144824 0.006011 1.466720
v -0.156043 -0.330524 0.307220
v -0.101160 0.273280 -0.373244
v -0.068798 0.001353 -0.889961
v -0.078169 -0.473389 2.320519
v 0.000000 -0.157086 3.002414
v 0.000000 -0.424603 1.353774
v 0.000000 0.106460 1.488099
v 0.000000 0.168172 -0.698220
v 0.000000 -0.322946 -0.666879
v -0.000000 -0.149473 -0.980373
v 0.000000 -0.339286 -0.114903
v 0.000000 0.330709 0.017782
v -0.764769 -0.067275 0.711968
v -0.593931 -0.371341 2.499279
v -0.686974 -0.331772 1.574450
v -0.671725 -0.106844 1.636798
v -0.362578 -0.202215 0.492402
v -0.311711 0.075060 0.699117
v -0.207947 -0.252934 2.232414
v -0.223140 -0.412159 2.170194
v -2.410453 -0.236740 1.864461
v -2.331499 -0.332394 2.597291
v -2.370976 -0.313909 2.230875
v -2.370976 -0.255224 2.230875
v -1.486604 -0.359755 2.416592
v -1.589169 -0.248779 1.449877
v -1.587090 -0.108964 1.458379
v -1.485911 -0.296401 2.419426
v -0.095287 -0.288030 3.003743
v 0.000000 -0.468724 2.992960
v -0.049922 -0.407430 3.320884
v -0.063668 -0.104556 2.389216
v -0.049922 -0.253185 3.321847
v -0.086333 -0.358654 3.308657
v -0.096965 -0.443907 2.995967
v -0.000000 -0.310944 3.441106
v 0.262228 -0.196748 -0.292385
v 0.245544 -0.019029 -0.436799
v 0.278159 0.009486 0.012885
v 0.090362 0.241214 0.583232
v 0.195274 0.209920 -0.081099
v 0.144384 -0.317704 -0.432170
v 0.149554 -0.125119 -0.824419
v 0.102225 -0.256435 -0.850040
v 0.156310 0.084126 -0.655331
v 0.203832 -0.233635 -0.643476
v 0.124985 -0.386326 2.670428
v 0.208569 -0.372932 1.206898
v 0.144824 0.006011 1.466720
v 0.156043 -0.330524 0.307220
v 0.101160 0.273280 -0.373244
v 0.068798 0.001353 -0.889961
v 0.078169 -0.473389 2.320519
v 0.764769 -0.067275 0.711968
v 0.593931 -0.371341 2.499280
v 0.686974 -0.331772 1.574450
v 0.671725 -0.106844 1.636798
v 0.362578 -0.202215 0.492402
v 0.311711 0.075060 0.699117
v 0.207947 -0.252934 2.232414
v 0.223140 -0.412159 2.170194
v 2.410453 -0.236740 1.864461
v 2.331499 -0.332394 2.597290
v 2.370976 -0.313909 2.230875
v 2.370976 -0.255224 2.230875
v 1.486604 -0.359755 2.416592
v 1.589169 -0.248779 1.449877
v 1.587090 -0.108964 1.458379
v 1.485911 -0.296401 2.419425
v 0.095287 -0.288030 3.003744
v 0.049922 -0.407430 3.320884
v 0.063668 -0.104556 2.389216
v 0.049922 -0.253185 3.321847
v 0.086333 -0.358654 3.308657
v 0.096965 -0.443907 2.995967
v -0.101688 0.308017 0.000696
v -0.205912 -0.075377 -0.645413
v -0.263599 0.011484 -0.234623
v -0.125405 -0.308721 -0.657723
v -0.108564 -0.380759 3.025690
v -0.075400 0.073687 1.480419
v -1.552400 -0.323018 1.937134
v -0.119734 -0.408433 1.282075
v -0.082725 0.155494 -0.682874
v -0.080105 -0.146401 -0.939215
v -0.158716 -0.309945 -0.193541
v -0.361489 -0.015193 0.306260
v -0.194449 -0.381638 2.491728
v -0.297557 -0.346307 1.307797
v -0.253144 -0.049481 1.489171
v -2.674377 -0.295748 2.336498
v -1.621082 -0.152430 1.282095
v -1.550494 -0.184982 1.944927
v -1.481812 -0.355571 2.599967
v -0.056809 -0.466007 2.989957
v -0.055090 -0.198158 3.000408
v -0.049150 -0.327812 3.424435
v 0.101688 0.308017 0.000696
v 0.205912 -0.075377 -0.645413
v 0.263599 0.011484 -0.234623
v 0.125405 -0.308721 -0.657723
v 0.108564 -0.380759 3.025690
v 0.075400 0.073687 1.480419
v 1.552400 -0.323018 1.937134
v 0.119734 -0.408433 1.282075
v 0.082725 0.155494 -0.682874
v 0.080105 -0.146401 -0.939215
v 0.158716 -0.309945 -0.193541
v 0.361489 -0.015193 0.306260
v 0.194449 -0.381638 2.491728
v 0.297557 -0.346307 1.307797
v 0.253144 -0.049481 1.489171
v 2.674377 -0.295748 2.336499
v 1.621082 -0.152430 1.282095
v 1.550494 -0.184982 1.944927
v 1.481812 -0.355571 2.599967
v 0.056809 -0.466007 2.989957
v 0.055090 -0.198158 3.000408
v 0.049150 -0.327812 3.424436
vn -0.1930 0.9767 -0.0935
vn -0.7077 0.7025 -0.0756
vn -0.7119 0.6977 0.0796
vn -0.2575 0.9599 0.1108
vn -0.9830 -0.0149 -0.1830
vn -0.9247 0.2979 -0.2370
vn -0.9094 0.2433 -0.3374
vn -0.9575 -0.0020 -0.2884
vn -0.9987 -0.0031 -0.0500
vn -0.9224 0.3861 0.0099
vn -0.9368 0.3391 -0.0859
vn -0.9936 0.0013 -0.1131
vn -0.1295 -0.9899 -0.0576
vn -0.7074 -0.7022 -0.0803
vn -0.6794 -0.6868 -0.2584
vn -0.1388 -0.9532 -0.2687
vn -0.9904 0.1291 0.0502
vn -0.9852 -0.1617 0.0562
vn -0.9757 -0.2005 0.0879
vn -0.9869 0.1482 0.0633
vn -0.4836 0.8592 0.1670
vn -0.3485 0.9214 0.1720
vn -0.7055 0.6945 0.1414
vn -0.8180 0.5582 0.1389
vn -0.0691 -0.9853 -0.1560
vn -0.0411 -0.9966 -0.0721
vn -0.0364 -0.9967 -0.0726
vn -0.0559 -0.9888 -0.1384
vn -0.5003 -0.8630 -0.0699
vn -0.1153 -0.9907 -0.0719
vn -0.0871 -0.9946 -0.0572
vn -0.3610 -0.9316 -0.0418
vn -0.6914 0.6553 -0.3043
vn -0.1831 0.9173 -0.3537
vn -0.2683 0.7724 -0.5757
vn -0.7039 0.5455 -0.4550
vn -0.8178 -0.1887 -0.5436
vn -0.8045 0.2298 -0.5477
vn -0.4291 0.3123 -0.8475
vn -0.3265 -0.5889 -0.7394
vn -0.6669 -0.7436 -0.0478
vn -0.7277 -0.6856 -0.0203
vn -0.1708 -0.9853 0.0107
vn -0.1604 -0.9863 -0.0388
vn -0.5186 -0.6589 -0.5449
vn -0.2993 0.9360 -0.1850
vn -0.6790 0.7269 -0.1027
vn -0.9593 -0.1537 -0.2368
vn 0.0071 0.9102 0.4141
vn -0.0405 -0.9961 0.0779
vn -0.5959 -0.7875 0.1576
vn -0.8054 0.5070 0.3070
vn -0.0841 -0.9941 -0.0686
vn -0.1403 -0.9772 -0.1591
vn -0.5007 -0.8601 -0.0976
vn -0.3264 -0.9442 -0.0434
vn -0.0679 0.9840 0.1648
vn -0.0357 0.9638 0.2642
vn -0.5419 0.8087 0.2288
vn -0.3821 0.9093 0.1649
vn -0.1546 0.9857 0.0664
vn -0.1596 -0.9693 -0.1869
vn -0.0783 -0.9960 -0.0418
vn -0.0522 0.9761 0.2112
vn -0.2308 0.9520 -0.2011
vn -0.2708 -0.8200 -0.5042
vn -0.2325 -0.8697 -0.4354
vn -0.2405 0.9523 -0.1880
vn 0.0100 0.9694 0.2452
vn -0.0340 0.9861 0.1629
vn -0.0366 0.9880 0.1499
vn 0.0003 0.9772 0.2122
vn -0.0166 -0.9991 0.0388
vn 0.0476 0.9365 0.3474
vn 0.0238 0.9518 0.3058
vn -0.0258 -0.9992 0.0308
vn -0.4013 -0.9155 0.0288
vn -0.0674 -0.9976 0.0148
vn -0.0110 -0.9832 0.1821
vn -0.3704 -0.9156 0.1564
vn -0.5794 0.8048 0.1291
vn -0.9029 0.4224 0.0796
vn -0.8970 0.4348 0.0803
vn -0.5654 0.8100 0.1553
vn -0.7804 -0.4831 0.3969
vn -0.0181 -0.7761 0.6304
vn -0.4823 0.6920 0.5371
vn -0.9279 0.2913 0.2326
vn 0.1930 0.9767 -0.0935
vn 0.2575 0.9599 0.1108
vn 0.7119 0.6977 0.0796
vn 0.7077 0.7025 -0.0756
vn 0.9830 -0.0149 -0.1830
vn 0.9575 -0.0020 -0.2884
vn 0.9094 0.2433 -0.3374
vn 0.9247 0.2979 -0.2370
vn 0.9987 -0.0031 -0.0500
vn 0.9936 0.0013 -0.1131
vn 0.9368 0.3391 -0.0859
vn 0.9224 0.3861 0.0099
vn 0.1295 -0.9899 -0.0576
vn 0.1388 -0.9532 -0.2687
vn 0.6794 -0.6868 -0.2584
vn 0.7074 -0.7022 -0.0803
vn 0.9904 0.1291 0.0502
vn 0.9869 0.1482 0.0633
vn 0.9757 -0.2005 0.0879
vn 0.9852 -0.1617 0.0562
vn 0.4836 0.8592 0.1670
vn 0.8180 0.5582 0.1389
vn 0.7055 0.6945 0.1414
vn 0.3485 0.9214 0.1720
vn 0.0691 -0.9853 -0.1560
vn 0.0559 -0.9888 -0.1384
vn 0.0364 -0.9967 -0.0726
vn 0.0411 -0.9966 -0.0721
vn 0.5003 -0.8630 -0.0699
vn 0.3610 -0.9316 -0.0418
vn 0.0871 -0.9946 -0.0572
vn 0.1153 -0.9907 -0.0719
vn 0.6914 0.6553 -0.3043
vn 0.7039 0.5455 -0.4550
vn 0.2683 0.7724 -0.5757
vn 0.1831 0.9173 -0.3537
vn 0.8178 -0.1887 -0.5436
vn 0.3265 -0.5889 -0.7394
vn 0.4291 0.3123 -0.8475
vn 0.8045 0.2298 -0.5477
vn 0.6669 -0.7436 -0.0478
vn 0.1604 -0.9863 -0.0388
vn 0.1708 -0.9853 0.0107
vn 0.7277 -0.6856 -0.0203
vn 0.5186 -0.6589 -0.5449
vn 0.9593 -0.1537 -0.2368
vn 0.6790 0.7269 -0.1027
vn 0.2993 0.9360 -0.1850
vn -0.0071 0.9102 0.4141
vn 0.8054 0.5070 0.3070
vn 0.5959 -0.7875 0.1576
vn 0.0405 -0.9961 0.0779
vn 0.0841 -0.9941 -0.0686
vn 0.3264 -0.9442 -0.0434
vn 0.5007 -0.8601 -0.0976
vn 0.1403 -0.9772 -0.1591
vn 0.0679 0.9840 0.1648
vn 0.3821 0.9093 0.1649
vn 0.5419 0.8087 0.2288
vn 0.0357 0.9638 0.2642
vn 0.1546 0.9857 0.0664
vn 0.0522 0.9761 0.2112
vn 0.0783 -0.9960 -0.0418
vn 0.1596 -0.9693 -0.1869
vn 0.2308 0.9520 -0.2011
vn 0.2405 0.9523 -0.1880
vn 0.2325 -0.8697 -0.4354
vn 0.2708 -0.8200 -0.5042
vn -0.0100 0.9694 0.2452
vn -0.0003 0.9772 0.2122
vn 0.0366 0.9880 0.1499
vn 0.0340 0.9861 0.1629
vn 0.0166 -0.9991 0.0388
vn 0.0258 -0.9992 0.0308
vn -0.0238 0.9518 0.3058
vn -0.0476 0.9365 0.3474
vn 0.4013 -0.9155 0.0288
vn 0.3704 -0.9156 0.1564
vn 0.0110 -0.9832 0.1821
vn 0.0674 -0.9976 0.0148
vn 0.5794 0.8048 0.1291
vn 0.5654 0.8100 0.1553
vn 0.8970 0.4348 0.0803
vn 0.9029 0.4224 0.0796
vn 0.7804 -0.4831 0.3969
vn 0.9279 0.2913 0.2326
vn 0.4823 0.6920 0.5371
vn 0.0181 -0.7761 0.6304
vt 0.625000 0.625000
vt 0.628906 0.535156
vt 0.653700 0.468370
vt 0.687500 0.562500
vt 0.586806 0.482639
vt 0.595919 0.398872
vt 0.625000 0.250000
vt 0.687500 0.375000
vt 0.750000 0.500000
vt 0.375000 0.500000
vt 0.496094 0.465278
vt 0.499186 0.502900
vt 0.415895 0.520014
vt 0.586806 0.482639
vt 0.580199 0.517843
vt 0.562500 0.531250
vt 0.500000 0.524402
vt 0.437500 0.531250
vt 0.375000 0.250000
vt 0.499320 0.285373
vt 0.496579 0.377224
vt 0.375000 0.375000
vt 0.595919 0.398872
vt 0.375000 0.625000
vt 0.341146 0.562066
vt 0.380015 0.561536
vt 0.375000 0.590278
vt 0.416763 0.565586
vt 0.496899 0.249132
vt 0.476653 0.246335
vt 0.481287 0.212336
vt 0.375000 0.250000
vt 0.415533 0.254654
vt 0.421875 0.213542
vt 0.000000 0.000000
vt 0.375000 0.250000
vt 0.500000 0.250000
vt 0.312500 0.125000
vt 0.625000 0.250000
vt 0.447917 0.250000
vt 0.440132 0.250000
vt 0.451752 0.250000
vt 0.455844 0.250000
vt 0.464850 0.250000
vt 0.473851 0.250000
vt 0.478221 0.250000
vt 0.467354 0.250000
vt 0.468103 0.250000
vt 0.125000 0.500000
vt 0.159722 0.561632
vt 0.128472 0.558160
vt 0.125000 0.500000
vt 0.125000 0.625000
vt 0.125868 0.586806
vt 0.125000 0.583333
vt 0.125000 0.557292
vt 0.616567 0.558552
vt 0.624349 0.589627
vt 0.583237 0.565587
vt 0.500000 0.565779
vt 0.416763 0.565587
vt 0.583237 0.565586
vt 0.500000 0.625000
vt 0.250000 0.500000
vt 0.250000 0.562500
vt 0.159722 0.561632
vt 0.341146 0.562066
vt 0.250000 0.625000
vt 0.499820 0.250000
vt 0.499894 0.253472
vt 0.431163 0.250868
vt 0.551670 0.250000
vt 0.568599 0.250868
vt 0.534452 0.250000
vt 0.499625 0.250000
vt 0.499778 0.250000
vt 0.558697 0.250000
vt 0.440898 0.250000
vt 0.415142 0.250000
vt 0.559313 0.250000
vt 0.584539 0.250000
vt 0.531359 0.250000
vt 0.499745 0.250000
vt 0.499667 0.250000
vt 0.531980 0.250000
vt 0.499589 0.250000
vt 0.520985 0.250000
vt 0.551670 0.250000
vt 0.499820 0.250000
vt 0.499784 0.250000
vt 0.543664 0.250000
vt 0.534452 0.250000
vt 0.559313 0.250000
vt 0.547596 0.250000
vt 0.525337 0.250000
vt 0.531980 0.250000
vt 0.499564 0.250000
vt 0.125000 0.558160
vt 0.125000 0.586806
vt 0.125000 0.562500
vt 0.311728 0.131752
vt 0.174696 0.071398
vt 0.283155 0.165244
vt 0.250000 0.437500
vt 0.269194 0.285397
vt 0.415533 0.254654
vt 0.125000 0.625000
vt 0.062500 0.312500
vt 0.283155 0.165244
vt 0.625000 0.625000
vt 0.653646 0.471354
vt 0.625000 0.562500
vt 0.598958 0.401042
vt 0.625000 0.500000
vt 0.409722 0.517361
vt 0.500000 0.503472
vt 0.500000 0.500000
vt 0.590278 0.517361
vt 0.497396 0.377604
vt 0.500000 0.250000
vt 0.375000 0.500000
vt 0.378472 0.560764
vt 0.375000 0.562500
vt 0.527961 0.230000
vt 0.497208 0.214479
vt 0.485950 0.246111
vt 0.489334 0.247465
vt 0.357201 0.158924
vt 0.498840 0.253056
vt 0.572734 0.249201
vt 0.455844 0.250000
vt 0.468103 0.250000
vt 0.467354 0.250000
vt 0.478221 0.250000
vt 0.473851 0.250000
vt 0.464850 0.250000
vt 0.125868 0.586806
vt 0.621528 0.560764
vt 0.625000 0.562500
vt 0.375000 0.562500
vt 0.500000 0.562500
vt 0.375000 0.625000
vt 0.625000 0.500000
vt 0.250000 0.562500
vt 0.431163 0.250000
vt 0.499897 0.250000
vt 0.567480 0.250000
vt 0.551670 0.250000
vt 0.534452 0.250000
vt 0.550013 0.248333
vt 0.497887 0.249583
vt 0.499625 0.250000
vt 0.464850 0.250000
vt 0.415142 0.250000
vt 0.578171 0.249583
vt 0.572734 0.249201
vt 0.531980 0.250000
vt 0.499667 0.250000
vt 0.499745 0.250000
vt 0.499589 0.250000
vt 0.499784 0.250000
vt 0.525337 0.250000
vt 0.547596 0.250000
vt 0.499564 0.250000
vt 0.321025 0.131528
vt 0.357201 0.158924
vt 0.281250 0.281250
s 0
usemtl Material
f 10/1/1 61/2/1 135/3/1 71/4/1
f 61/2/2 1/5/2 51/6/2 135/3/2
f 135/3/3 51/6/3 17/7/3 50/8/3
f 71/4/4 135/3/4 50/8/4 11/9/4
f 2/10/5 48/11/5 136/12/5 56/13/5
f 48/11/6 1/14/6 55/15/6 136/12/6
f 136/12/7 55/15/7 5/16/7 53/17/7
f 56/13/8 136/12/8 53/17/8 6/18/8
f 18/19/9 49/20/9 137/21/9 47/22/9
f 49/20/10 17/7/10 51/23/10 137/21/10
f 137/21/11 51/23/11 1/14/11 48/11/11
f 47/22/12 137/21/12 48/11/12 2/10/12
f 12/24/13 52/25/13 138/26/13 68/27/13
f 52/25/14 2/10/14 56/13/14 138/26/14
f 138/26/15 56/13/15 6/18/15 54/28/15
f 68/27/16 138/26/16 54/28/16 14/24/16
f 19/7/17 57/29/17 139/30/17 88/31/17
f 57/29/18 20/19/18 94/32/18 139/30/18
f 139/30/19 94/32/19 25/19/19 93/33/19
f 88/31/20 139/30/20 93/33/20 26/34/20
f 16/35/21 66/36/21 140/37/21 91/38/21
f 66/36/22 11/9/22 50/8/22 140/37/22
f 140/37/23 50/8/23 17/39/23 59/39/23
f 91/38/24 140/37/24 59/39/24 19/39/24
f 4/40/25 74/41/25 141/42/25 85/43/25
f 74/41/26 7/44/26 84/45/26 141/42/26
f 141/42/27 84/45/27 24/46/27 82/47/27
f 85/43/28 141/42/28 82/47/28 22/48/28
f 18/49/29 60/50/29 142/51/29 58/52/29
f 60/50/30 9/53/30 65/54/30 142/51/30
f 142/51/31 65/54/31 15/55/31 63/56/31
f 58/52/32 142/51/32 63/56/32 20/49/32
f 1/14/33 61/2/33 143/57/33 55/15/33
f 61/2/34 10/1/34 67/58/34 143/57/34
f 143/57/35 67/58/35 13/1/35 62/59/35
f 55/15/36 143/57/36 62/59/36 5/16/36
f 6/18/37 53/17/37 144/60/37 54/61/37
f 53/17/38 5/16/38 62/62/38 144/60/38
f 144/60/39 62/62/39 13/1/39 69/63/39
f 54/61/40 144/60/40 69/63/40 14/24/40
f 18/49/41 47/64/41 145/65/41 60/66/41
f 47/64/42 2/10/42 52/67/42 145/65/42
f 145/65/43 52/67/43 12/24/43 70/68/43
f 60/66/44 145/65/44 70/68/44 9/53/44
f 4/40/45 72/69/45 146/70/45 76/71/45
f 72/69/46 3/72/46 77/73/46 146/70/46
f 146/70/47 77/73/47 17/7/47 49/20/47
f 76/71/48 146/70/48 49/20/48 18/19/48
f 8/74/49 73/75/49 147/76/49 78/77/49
f 73/75/50 7/44/50 79/78/50 147/76/50
f 147/76/51 79/78/51 20/19/51 57/29/51
f 78/77/52 147/76/52 57/29/52 19/7/52
f 7/44/53 74/41/53 148/79/53 79/78/53
f 74/41/54 4/40/54 76/71/54 148/79/54
f 148/79/55 76/71/55 18/19/55 58/32/55
f 79/78/56 148/79/56 58/32/56 20/19/56
f 3/72/57 75/80/57 149/81/57 77/73/57
f 75/80/58 8/74/58 78/77/58 149/81/58
f 149/81/59 78/77/59 19/7/59 59/39/59
f 77/73/60 149/81/60 59/39/60 17/7/60
f 21/82/61 80/83/61 150/84/61 83/85/61
f 80/83/62 22/48/62 82/47/62 150/84/62
f 150/84/63 82/47/63 24/46/63 81/86/63
f 83/85/64 150/84/64 81/86/64 23/87/64
f 3/88/65 72/89/65 151/90/65 86/91/65
f 72/89/66 4/40/66 85/43/66 151/90/66
f 151/90/67 85/43/67 22/48/67 80/83/67
f 86/91/68 151/90/68 80/83/68 21/82/68
f 8/92/69 75/93/69 152/94/69 87/95/69
f 75/93/70 3/88/70 86/91/70 152/94/70
f 152/94/71 86/91/71 21/82/71 83/96/71
f 87/95/72 152/94/72 83/96/72 23/87/72
f 7/44/73 73/75/73 153/97/73 84/45/73
f 73/75/74 8/92/74 87/95/74 153/97/74
f 153/97/75 87/95/75 23/87/75 81/86/75
f 84/45/76 153/97/76 81/86/76 24/46/76
f 20/49/77 63/56/77 154/98/77 94/52/77
f 63/56/78 15/55/78 89/99/78 154/98/78
f 154/98/79 89/99/79 28/53/79 90/100/79
f 94/52/80 154/98/80 90/100/80 25/52/80
f 16/35/81 91/38/81 155/101/81 64/102/81
f 91/38/82 19/7/82 88/31/82 155/101/82
f 155/101/83 88/31/83 26/34/83 92/103/83
f 64/102/84 155/101/84 92/103/84 27/35/84
f 25/19/85 90/104/85 156/105/85 93/106/85
f 90/104/86 28/107/86 95/108/86 156/105/86
f 156/105/87 95/108/87 27/35/87 92/109/87
f 93/106/88 156/105/88 92/109/88 26/34/88
f 10/110/89 71/4/89 157/111/89 110/112/89
f 71/4/90 11/9/90 99/8/90 157/111/90
f 157/111/91 99/8/91 37/7/91 100/113/91
f 110/112/92 157/111/92 100/113/92 29/114/92
f 30/10/93 105/115/93 158/116/93 97/117/93
f 105/115/94 34/10/94 102/117/94 158/116/94
f 158/116/95 102/117/95 33/114/95 104/118/95
f 97/117/96 158/116/96 104/118/96 29/114/96
f 38/36/97 96/22/97 159/119/97 98/120/97
f 96/22/98 30/121/98 97/117/98 159/119/98
f 159/119/99 97/117/99 29/114/99 100/113/99
f 98/120/100 159/119/100 100/113/100 37/7/100
f 12/24/101 68/27/101 160/122/101 101/123/101
f 68/27/102 14/24/102 103/123/102 160/122/102
f 160/122/103 103/123/103 34/10/103 105/115/103
f 101/123/104 160/122/104 105/115/104 30/10/104
f 39/124/105 129/125/105 161/126/105 106/127/105
f 129/125/106 46/7/106 133/120/106 161/126/106
f 161/126/107 133/120/107 45/36/107 134/32/107
f 106/127/108 161/126/108 134/32/108 40/19/108
f 16/35/109 131/128/109 162/129/109 66/36/109
f 131/128/110 39/124/110 108/130/110 162/129/110
f 162/129/111 108/130/111 37/7/111 99/8/111
f 66/36/112 162/129/112 99/8/112 11/9/112
f 32/40/113 126/131/113 163/42/113 115/41/113
f 126/131/114 42/132/114 123/133/114 163/42/114
f 163/42/115 123/133/115 44/134/115 125/135/115
f 115/41/116 163/42/116 125/135/116 35/136/116
f 38/52/117 107/52/117 164/98/117 109/100/117
f 107/52/118 40/49/118 112/56/118 164/98/118
f 164/98/119 112/56/119 15/55/119 65/137/119
f 109/100/120 164/98/120 65/137/120 9/53/120
f 29/114/121 104/118/121 165/138/121 110/139/121
f 104/118/122 33/114/122 111/139/122 165/138/122
f 165/138/123 111/139/123 13/1/123 67/58/123
f 110/139/124 165/138/124 67/58/124 10/1/124
f 34/121/125 103/140/125 166/141/125 102/117/125
f 103/140/126 14/142/126 69/63/126 166/141/126
f 166/141/127 69/63/127 13/110/127 111/139/127
f 102/117/128 166/141/128 111/139/128 33/143/128
f 38/52/129 109/100/129 167/144/129 96/64/129
f 109/100/130 9/107/130 70/68/130 167/144/130
f 167/144/131 70/68/131 12/142/131 101/140/131
f 96/64/132 167/144/132 101/140/132 30/121/132
f 32/40/133 117/145/133 168/146/133 113/69/133
f 117/145/134 38/19/134 98/120/134 168/146/134
f 168/146/135 98/120/135 37/7/135 118/147/135
f 113/69/136 168/146/136 118/147/136 31/148/136
f 36/149/137 119/150/137 169/151/137 114/152/137
f 119/150/138 39/124/138 106/127/138 169/151/138
f 169/151/139 106/127/139 40/19/139 120/78/139
f 114/152/140 169/151/140 120/78/140 35/153/140
f 35/153/141 120/78/141 170/154/141 115/41/141
f 120/78/142 40/19/142 107/32/142 170/154/142
f 170/154/143 107/32/143 38/19/143 117/145/143
f 115/41/144 170/154/144 117/145/144 32/40/144
f 31/148/145 118/147/145 171/155/145 116/93/145
f 118/147/146 37/7/146 108/156/146 171/155/146
f 171/155/147 108/156/147 39/124/147 119/150/147
f 116/93/148 171/155/148 119/150/148 36/149/148
f 41/82/149 124/157/149 172/158/149 121/159/149
f 124/157/150 43/87/150 122/160/150 172/158/150
f 172/158/151 122/160/151 44/134/151 123/133/151
f 121/159/152 172/158/152 123/133/152 42/132/152
f 31/88/153 127/91/153 173/161/153 113/89/153
f 127/91/154 41/82/154 121/159/154 173/161/154
f 173/161/155 121/159/155 42/132/155 126/131/155
f 113/89/156 173/161/156 126/131/156 32/40/156
f 36/149/157 128/162/157 174/163/157 116/93/157
f 128/162/158 43/87/158 124/157/158 174/163/158
f 174/163/159 124/157/159 41/82/159 127/91/159
f 116/93/160 174/163/160 127/91/160 31/88/160
f 35/136/161 125/135/161 175/164/161 114/152/161
f 125/135/162 44/134/162 122/86/162 175/164/162
f 175/164/163 122/86/163 43/87/163 128/162/163
f 114/152/164 175/164/164 128/162/164 36/149/164
f 40/49/165 134/52/165 176/98/165 112/56/165
f 134/52/166 45/52/166 130/100/166 176/98/166
f 176/98/167 130/100/167 28/53/167 89/99/167
f 112/56/168 176/98/168 89/99/168 15/55/168
f 16/35/169 64/102/169 177/165/169 131/166/169
f 64/102/170 27/35/170 132/38/170 177/165/170
f 177/165/171 132/38/171 46/7/171 129/125/171
f 131/166/172 177/165/172 129/125/172 39/124/172
f 45/36/173 133/120/173 178/167/173 130/104/173
f 133/120/174 46/39/174 132/38/174 178/167/174
f 178/167/175 132/38/175 27/35/175 95/108/175
f 130/104/176 178/167/176 95/108/176 28/107/176
